<?xml version="1.0" standalone="no"?>
<!DOCTYPE svg PUBLIC "-//W3C//DTD SVG 20010904//EN"
 "http://www.w3.org/TR/2001/REC-SVG-20010904/DTD/svg10.dtd">
<svg version="1.0" xmlns="http://www.w3.org/2000/svg"
 width="366.000000pt" height="366.000000pt" viewBox="0 0 366.000000 366.000000"
 preserveAspectRatio="xMidYMid meet">
<metadata>
Created by potrace 1.11, written by Peter Selinger 2001-2013
</metadata>
<g transform="translate(0.000000,366.000000) scale(0.100000,-0.100000)"
fill="#000000" stroke="none">
<path d="M3465 3628 c-123 -97 -382 -304 -391 -313 -6 -5 -30 -26 -54 -45
-173 -139 -557 -468 -655 -562 -38 -36 -70 -53 -46 -24 9 11 8 22 -2 47 -8 19
-21 54 -28 78 -12 39 -19 46 -49 53 -19 5 -44 13 -55 19 -11 5 -30 11 -43 14
-12 2 -25 6 -30 9 -4 2 -25 -4 -46 -15 -22 -10 -41 -19 -43 -19 -2 0 3 16 11
35 43 103 61 201 71 389 3 54 7 102 10 106 14 22 -34 42 -193 83 -128 32 -177
41 -187 33 -8 -6 -17 -31 -19 -55 -6 -59 -46 -88 -46 -32 0 53 -15 54 -161 10
-74 -23 -143 -44 -153 -47 -11 -3 -17 -1 -13 4 9 15 -18 69 -49 98 -49 45
-127 69 -224 68 -50 0 -103 -7 -128 -16 -23 -8 -45 -15 -48 -15 -2 1 -18 -4
-34 -11 -35 -14 -45 -39 -29 -72 9 -22 6 -32 -33 -85 -39 -56 -329 -451 -351
-481 -5 -7 -12 -29 -14 -50 -8 -65 46 -113 132 -117 43 -2 41 1 31 -75 -8 -57
-19 -181 -21 -235 -1 -27 -7 -70 -13 -95 -15 -63 -9 -139 15 -184 l20 -39 -91
-46 c-122 -62 -124 -73 -19 -141 43 -27 83 -51 88 -54 6 -2 5 -11 -3 -22 -76
-115 -10 -266 121 -272 105 -6 184 70 186 179 1 28 6 38 25 47 24 11 24 10 15
-18 -22 -61 11 -143 74 -183 104 -68 241 -2 261 125 1 13 0 35 -5 51 -7 25 -6
27 25 27 l32 0 -1 -58 c-1 -63 -10 -83 -67 -142 -58 -62 -386 -451 -483 -574
-16 -21 -41 -51 -54 -67 -124 -150 -586 -756 -646 -846 -23 -35 -25 -46 -15
-58 18 -22 38 -19 79 12 45 34 272 214 287 228 6 5 28 24 50 40 34 27 228 187
344 284 38 32 92 77 215 179 21 18 129 109 179 152 16 14 47 42 70 62 23 21
43 38 46 38 3 0 5 -38 5 -84 0 -77 2 -86 24 -105 13 -12 30 -21 38 -21 17 0
16 -6 -3 -39 -11 -18 -47 -43 -100 -69 -61 -30 -84 -47 -84 -61 0 -12 47 -56
138 -127 75 -59 139 -111 142 -114 3 -3 18 -16 34 -28 23 -18 32 -20 50 -10
23 12 267 169 305 196 24 17 24 17 83 -42 l59 -59 -35 -73 c-32 -68 -39 -75
-93 -102 -32 -16 -105 -49 -163 -72 -58 -24 -111 -48 -118 -55 -21 -19 -5 -57
47 -113 51 -55 62 -59 108 -41 15 6 35 12 43 14 18 4 196 72 290 110 162 66
266 140 305 216 19 36 25 32 50 -35 13 -35 40 -70 94 -125 128 -127 241 -173
415 -167 206 6 356 64 472 181 64 65 74 80 97 151 25 76 43 152 39 165 0 4 -3
18 -6 33 -2 14 -7 30 -10 35 -4 5 -8 24 -10 42 -2 17 -11 36 -20 41 -20 11
-20 32 -2 61 25 39 49 119 62 199 5 37 11 48 25 48 10 0 21 9 24 21 6 18 -2
146 -10 159 -2 3 -6 21 -9 40 -23 138 -68 282 -112 357 -16 27 -36 63 -45 81
-10 18 -40 57 -67 85 -28 29 -72 75 -99 103 -63 68 -169 147 -252 188 -61 31
-195 84 -231 91 -8 2 -33 8 -55 14 -56 15 -140 25 -202 24 -58 -1 -82 15 -67
46 8 17 40 56 130 160 17 20 70 86 118 146 48 61 92 117 99 125 12 15 144 185
159 205 4 6 18 24 31 40 13 17 90 118 170 225 81 107 151 200 155 205 56 68
222 312 222 326 0 10 -29 39 -38 39 -4 -1 -25 -15 -47 -32z m-1135 -1739 c0
-6 -31 -52 -69 -102 -37 -51 -74 -102 -82 -114 -18 -30 -29 -29 -29 1 0 39
-24 52 -73 39 -23 -7 -43 -11 -44 -9 -1 1 15 19 35 41 21 22 55 61 76 87 30
37 47 49 79 56 67 13 107 14 107 1z m683 -174 c15 -11 16 -14 2 -25 -9 -8 -25
-10 -42 -5 -48 12 -56 14 -128 30 -38 9 -75 18 -82 20 -7 2 3 20 25 44 l37 39
85 -46 c47 -25 93 -51 103 -57z m-333 -65 c-6 -11 -18 -20 -27 -20 -14 0 -14
2 2 20 10 11 22 20 27 20 5 0 4 -9 -2 -20z m645 -432 c9 -30 17 -267 9 -280
-3 -5 -15 5 -25 22 -25 41 -124 137 -149 145 -28 9 -25 18 13 38 17 10 55 35
82 57 28 21 53 39 56 39 4 1 10 -9 14 -21z"/>
</g>
</svg>
